<svg width="170" height="55" fill="none" xmlns="http://www.w3.org/2000/svg"><path d="M70.265 37.266c-1.468-1.746-1.852-8.979-1.468-13.031a2.343 2.343 0 00-2.113-2.55h-.28a2.358 2.358 0 00-2.34 2.13c0 .123-1.066 12.229 2.567 16.509a2.358 2.358 0 001.747.82 2.306 2.306 0 001.52-.558c.472-.402.767-.973.82-1.59a2.27 2.27 0 00-.453-1.73zm-4.21-17.224a2.447 2.447 0 003.092-1.956 2.623 2.623 0 00-2.027-3.232 2.428 2.428 0 00-3.057 1.974 2.586 2.586 0 001.992 3.214zm55.079-2.812a12.445 12.445 0 00-1.415-4.63 10.49 10.49 0 00-3.354-3.738 10.186 10.186 0 00-4.769-1.869 10.572 10.572 0 00-5.014.751 19.46 19.46 0 00-6.987 5.24 31.749 31.749 0 00-2.987 3.914l-.507-.734a25.778 25.778 0 00-2.795-2.882 18.412 18.412 0 00-7.494-4.28 8.91 8.91 0 00-9.66 3.232 14.779 14.779 0 00-2.76 8.734 27.95 27.95 0 005.03 15.722 38.204 38.204 0 0011.233 11.04 2.27 2.27 0 002.673-3.65 40.022 40.022 0 01-9.101-10.36 24.596 24.596 0 01-3.721-12.438 8.893 8.893 0 011.52-5.24 3.127 3.127 0 013.493-1.31 15.846 15.846 0 015.503 2.742 32.705 32.705 0 015.066 4.437c.162.247.37.46.611.63a1.992 1.992 0 002.76-.577l.158-.245a33.378 33.378 0 014.472-5.45 15.336 15.336 0 015.363-3.599 4.644 4.644 0 014.734.647 6.029 6.029 0 012.445 4.524 17.474 17.474 0 01-.768 6.481 43.046 43.046 0 01-2.551 6.656 60.194 60.194 0 01-7.756 12.228 2.409 2.409 0 00.29 3.297 2.41 2.41 0 003.309-.1 55.75 55.75 0 009.066-13.12 42.384 42.384 0 003.005-7.529 23.054 23.054 0 00.908-8.524zm38.763 8.577a7.635 7.635 0 00-.349-.926 6.46 6.46 0 00-.507-.96 5.065 5.065 0 00-.733-.91 4.009 4.009 0 00-.909-.733 7.613 7.613 0 00-3.825-1.188 18.4 18.4 0 00-6.674.961 1.98 1.98 0 00-1.327 2.463 1.975 1.975 0 002.463 1.328h.122a14.467 14.467 0 015.101-.63c.62.023 1.223.21 1.747.543.411.327.69.793.786 1.31.088.34.158.683.21 1.03a22.955 22.955 0 00-5.87.158 8.422 8.422 0 00-3.965 1.746 4.262 4.262 0 00-.891.961 4.072 4.072 0 00-.647 1.17 6.622 6.622 0 00-.419 2.481c0 .42.105.839.175 1.24.109.439.274.861.489 1.258a5.238 5.238 0 001.747 1.957 9.205 9.205 0 004.105 1.275c1.817.1 3.64-.005 5.433-.315.327.31.742.512 1.188.577a2.255 2.255 0 002.55-1.904 50.11 50.11 0 00.559-6.236c.16-2.235-.028-4.48-.559-6.656zm-8.734 10.184a4.732 4.732 0 01-2.096-.559 1.096 1.096 0 01-.577-1.03 1.372 1.372 0 01.489-1.188 4.319 4.319 0 011.957-.752 16.976 16.976 0 015.24.105c0 .979-.139 1.974-.262 2.97-1.55.362-3.142.515-4.734.454h-.017zM45.337 29.493a7.146 7.146 0 00-.35-1.502 9.575 9.575 0 00-1.292-2.446 9.398 9.398 0 00-4.315-3.32 10.848 10.848 0 00-5.24-.558c-.718.078-1.425.224-2.114.436a2.376 2.376 0 00-2.54-.802 2.34 2.34 0 00-1.653 2.025c-.465 7.899-.366 15.82.297 23.706a2.306 2.306 0 002.288 2.148h.227a2.358 2.358 0 001.608-.82 2.339 2.339 0 00.559-1.748c0-.611-.227-3.249-.385-6.655.839.133 1.685.209 2.533.227h.227a13.575 13.575 0 004.647-.769 8.735 8.735 0 004.297-3.494 9.363 9.363 0 001.346-5.24 11.178 11.178 0 00-.14-1.188zM32.305 27.03a8.123 8.123 0 015.328-.262 4.594 4.594 0 013.005 4.105 4.035 4.035 0 01-2.55 4.384c-1.858.69-3.862.89-5.818.577-.07-2.9-.087-5.992.035-8.804zm135.418 13.608a2.151 2.151 0 01-1.642-.769c-3.144-3.686-1.939-18.517-1.275-24.736a2.26 2.26 0 012.481-2.008 2.265 2.265 0 011.518.824 2.263 2.263 0 01.491 1.656c-1.084 10.027-.979 19.81.209 21.347a2.27 2.27 0 01-1.747 3.686h-.035z" fill="#D07CC6"/><path d="M99.28 54.438a2.255 2.255 0 01-1.275-.402l-3.79-2.567a2.277 2.277 0 112.55-3.774l2.306 1.555 1.747-1.537a2.304 2.304 0 013.695.917 2.267 2.267 0 01-.085 1.743c-.13.27-.312.512-.536.711l-3.074 2.76c-.423.38-.97.59-1.537.594z" fill="#FF5F4E"/><path d="M140.751 28.637a8.729 8.729 0 00-.978-3.284 6.494 6.494 0 00-2.62-2.743 8.243 8.243 0 00-3.494-.96 14.56 14.56 0 00-3.144.174 10.51 10.51 0 00-3.162 1.135 9.122 9.122 0 00-4.158 5.363 12.015 12.015 0 00-.471 3.215c0 .524 0 1.048.087 1.572.076.592.205 1.177.384 1.747a9.398 9.398 0 004.298 5.24 11.231 11.231 0 0012.228-.733 1.987 1.987 0 00-.798-3.465 1.992 1.992 0 00-1.421.18 7.335 7.335 0 01-7.599.105 4.981 4.981 0 01-2.026-2.236l10.761-.401a1.974 1.974 0 001.869-1.625c.219-1.08.301-2.183.244-3.284zm-10.952-1.747a7.316 7.316 0 013.755-.839 2.761 2.761 0 012.533 1.276 4.96 4.96 0 01.577 2.078h-8.735a4.295 4.295 0 011.87-2.463v-.052zM61.495 38.437a1.921 1.921 0 00-2.218-1.537 5.24 5.24 0 01-2.289 0 1.746 1.746 0 01-1.048-.961 16.948 16.948 0 01-.856-5.45v-4.665h2.603-.017a2.097 2.097 0 10-.123-4.192l-2.55.14c0-1.747.105-3.494.175-5.119v-.157a2.359 2.359 0 00-4.7-.262 180.584 180.584 0 00-.384 6.027l-1.747.227a1.746 1.746 0 00-1.415 1.974 1.748 1.748 0 001.904 1.607h1.136c0 1.747 0 3.406.14 4.874 0 1.065.174 2.218.367 3.494a10.48 10.48 0 001.345 4c.45.74 1.044 1.38 1.747 1.887a6.271 6.271 0 003.493 1.048 8.385 8.385 0 003.197-.682 1.921 1.921 0 001.24-2.253zM22.243 15.029a11.652 11.652 0 00-3.965-4.665 10.638 10.638 0 00-5.852-1.624h-.175a12.35 12.35 0 00-5.922 1.432 10.988 10.988 0 00-4.193 4.525 23.88 23.88 0 00-2.113 10.55 22.01 22.01 0 002.2 10.64 11.652 11.652 0 004.088 4.437 11.53 11.53 0 005.765 1.746h.786c1.833.024 3.64-.434 5.24-1.327a11.302 11.302 0 004.193-4.56 22.57 22.57 0 002.184-10.62 25.802 25.802 0 00-2.236-10.534zm-3.144 10.62a20.266 20.266 0 01-1.293 8.333 6.098 6.098 0 01-2.061 2.708 5.591 5.591 0 01-3.494.664 6.324 6.324 0 01-5.73-3.756c-.542-1.24-.9-2.552-1.066-3.896a30.099 30.099 0 01-.192-4.42 19.216 19.216 0 011.415-8.332 5.94 5.94 0 012.201-2.638 6.987 6.987 0 013.372-.89 5.625 5.625 0 015.363 3.79 20.857 20.857 0 011.485 8.438z" fill="#D07CC6"/><path d="M139.092 9.211V5.613a1.144 1.144 0 00-.614-1.173 1.13 1.13 0 00-.452-.12 1.132 1.132 0 00-1.133.558 1.14 1.14 0 00-.142.42 13.802 13.802 0 00-.14 2.062 20.141 20.141 0 000 2.026c.103 1.373.372 2.728.804 4.036a1.02 1.02 0 00.483.624 1.033 1.033 0 001.508-1.166 25.186 25.186 0 01-.314-3.669zm-1.066-5.572a1.102 1.102 0 001.363-.926 1.207 1.207 0 00-.804-1.537 1.098 1.098 0 00-1.362.926 1.206 1.206 0 00.803 1.537zm9.835-3.634a1.136 1.136 0 00-1.013 1.24s.14 1.486.28 3.494a8.128 8.128 0 00-1.311-.122 6.659 6.659 0 00-2.428.42 4.348 4.348 0 00-2.096 1.746 4.661 4.661 0 00-.629 2.62v.63c.047.248.112.493.192.733a4.9 4.9 0 00.682 1.223 4.609 4.609 0 002.166 1.59c.84.295 1.74.379 2.62.244.367-.058.73-.146 1.083-.262a1.107 1.107 0 00.804.437 1.118 1.118 0 001.135-1.03c.2-3.984.118-7.977-.244-11.95a1.135 1.135 0 00-1.241-1.013zm-3.301 11.338a2.358 2.358 0 01-1.59-2.08 2.097 2.097 0 011.275-2.27 5.625 5.625 0 012.987-.35c0 1.468.105 3.058 0 4.507a4.103 4.103 0 01-2.672.193zm-12.648-2.848c1.363-1.415 2.76-3.144 2.83-3.231a1.119 1.119 0 00-.209-1.59 1.138 1.138 0 00-1.59.157 40.22 40.22 0 01-3.494 3.896c0-1.887.14-4.106.367-6.481a1.152 1.152 0 00-1.013-1.24 1.154 1.154 0 00-1.258 1.03c-.332 3.826-.926 11.18.646 13.014a1.09 1.09 0 00.874.402 1.133 1.133 0 001.119-1.027 1.123 1.123 0 00-.263-.825 6.057 6.057 0 01-.454-2.498h.192s2.306 0 3.616 3.494a1.135 1.135 0 001.048.716 1.2 1.2 0 00.419-.087 1.133 1.133 0 00.646-1.467 7.699 7.699 0 00-3.476-4.263zm27.269.961a5.237 5.237 0 00-3.808-1.432 4.764 4.764 0 01-1.869-.385c-.14-.122-.14-.21-.105-.314.035-.105.559-.699 1.362-.786a4.49 4.49 0 012.184.105 1.136 1.136 0 001.45-1.747c-.315-.297-1.345-.944-3.896-.63a3.734 3.734 0 00-3.266 2.342 2.532 2.532 0 00.768 2.707 5.243 5.243 0 003.18.961c.838 0 1.956.192 2.253.56a.24.24 0 010 .244c-.105.227-.541.646-1.59.75a4.594 4.594 0 01-2.917-.646 1.131 1.131 0 00-.886-.4 1.136 1.136 0 00-.494 2.147 6.639 6.639 0 003.791 1.153h.751a3.986 3.986 0 003.494-2.13 2.48 2.48 0 00-.402-2.499z" fill="#FF5F4E"/></svg>