<svg width="50" height="50" fill="none" xmlns="http://www.w3.org/2000/svg"><circle cx="25" cy="25" r="25" fill="#2786F5"/><circle cx="25" cy="25" r="25" fill="url(#paint0_linear_603_448)"/><path d="M37.258 31.394c0-.104-.104-.104-.104-.207-.415-.83-1.35-1.868-2.595-3.01-.622-.519-.933-.934-1.141-1.142-.311-.415-.311-.726-.208-1.141.104-.311.52-.83 1.246-1.764.415-.52.622-.83.934-1.142 1.556-2.075 2.283-3.425 2.075-4.047l-.103-.104c-.104-.104-.208-.208-.416-.208-.207-.103-.518-.103-.83 0h-4.67l-.104.104c-.103.104-.103.104-.103.208-.416 1.141-.934 2.075-1.453 3.113-.312.519-.623 1.038-.934 1.453-.312.415-.52.726-.727.934-.207.207-.415.311-.519.519-.103.104-.311.207-.311.104-.104 0-.208 0-.208-.104l-.31-.312c-.105-.103-.105-.31-.209-.518v-5.189c0-.104-.103-.312-.103-.415l-.312-.312c-.103-.104-.31-.104-.415-.207a9.306 9.306 0 00-1.868-.208c-1.66 0-2.802.104-3.217.311-.207.104-.415.208-.519.416-.207.207-.207.31-.104.31.52.105.934.312 1.142.624l.104.207c.104.104.104.311.207.623.104.311.104.623.104 1.038v1.66c0 .519-.104.83-.104 1.142 0 .311-.103.518-.207.622-.104.208-.104.312-.208.312 0 0 0 .103-.104.103-.103 0-.207.104-.415.104-.103 0-.31-.104-.415-.207a1.25 1.25 0 01-.519-.52c-.207-.207-.415-.518-.622-.933-.208-.415-.52-.83-.727-1.453l-.207-.415a14.674 14.674 0 01-.52-1.142c-.207-.519-.414-.934-.622-1.453a1.429 1.429 0 00-.311-.415h-.104s-.104-.104-.207-.104c-.104 0-.208-.103-.312-.103h-3.736c-.415 0-.623.103-.726.207l-.104.104v.207c0 .104 0 .208.104.416.518 1.245 1.141 2.49 1.764 3.736.623 1.141 1.245 2.179 1.66 2.905.52.727.934 1.453 1.453 2.076.52.623.83 1.038.934 1.245l.415.415.312.312c.207.207.519.519.934.83.415.311.934.623 1.453.934.518.311 1.141.519 1.764.726.726.208 1.349.312 1.972.208h1.556c.312 0 .52-.104.727-.311l.104-.104c0-.104.103-.104.103-.208v-.415c0-.415 0-.726.104-1.038.104-.31.104-.518.208-.726.103-.208.207-.311.311-.415l.208-.208h.103c.208-.103.52 0 .727.208.311.207.623.519.83.83.208.311.519.623.934 1.038.415.415.726.726.934.83l.311.208c.208.103.416.207.727.311.311.104.519.104.726.104l3.529-.104c.311 0 .622-.104.83-.208.207-.103.311-.207.311-.415v-.415c-.207-.207-.207-.311-.207-.415z" fill="#fff"/><defs><linearGradient id="paint0_linear_603_448" x1="12" y1="47" x2="39" y2="4" gradientUnits="userSpaceOnUse"><stop stop-color="#003ACE"/><stop offset="1" stop-color="#2786F5"/></linearGradient></defs></svg>