<svg width="50" height="50" fill="none" xmlns="http://www.w3.org/2000/svg"><circle cx="25" cy="25" r="25" fill="#48C95F"/><circle cx="25" cy="25" r="25" fill="url(#paint0_linear_603_454)"/><path d="M34.908 15.078a13.035 13.035 0 00-9.237-3.828c-7.226 0-13.08 5.833-13.08 13.034 0 2.279.64 4.557 1.738 6.471L12.5 37.5l6.951-1.823c1.921 1.003 4.025 1.55 6.22 1.55 7.225 0 13.079-5.834 13.079-13.034-.092-3.373-1.372-6.654-3.842-9.115zm-2.926 13.854c-.275.73-1.555 1.459-2.195 1.55a5.13 5.13 0 01-2.013-.091c-.457-.183-1.097-.365-1.829-.73-3.293-1.367-5.396-4.648-5.58-4.921-.182-.183-1.371-1.732-1.371-3.373 0-1.64.823-2.37 1.098-2.734.274-.365.64-.365.914-.365h.64c.183 0 .458-.09.732.547.274.638.915 2.279 1.006 2.37a.58.58 0 010 .547 1.91 1.91 0 01-.366.547c-.183.182-.366.455-.457.547-.183.182-.366.364-.183.637.183.365.823 1.368 1.83 2.28 1.28 1.093 2.286 1.458 2.652 1.64.366.182.549.091.732-.091.182-.183.823-.912 1.006-1.276.183-.365.457-.274.731-.183.275.091 1.921.912 2.195 1.094.366.182.55.274.64.365.092.273.092.911-.182 1.64z" fill="#fff"/><defs><linearGradient id="paint0_linear_603_454" x1="31.5" y1="5" x2="14.5" y2="50" gradientUnits="userSpaceOnUse"><stop stop-color="#2BCB00"/><stop offset="1" stop-color="#007803"/></linearGradient></defs></svg>